# xmcd CD database file
#
# Track frame offsets:
#	150
#	32140
#	82070
#	112848
#	155326
#	177811
#	220301
#	256565
#
# Disc length: 3960 seconds
#
# Revision: 1
# Processed by: cddbd v1.5.2PL0 Copyright (c) Steve Scherf et al.
# Submitted via: CDex 1.51
#
DISCID=5c0f7608
DTITLE=Lionel Hampton - Jazz in Paris Mai 1956
DYEAR=1956
DGENRE=Jazz
TTITLE0=Jammin' on high society
TTITLE1=Love is a many splendored thing
TTITLE2=Lullaby of birdland
TTITLE3=Blues for Monique
TTITLE4=Regina's drag
TTITLE5=New Saint-Louis blues
TTITLE6=Just you, just me
TTITLE7=Exactly like you
EXTD=Jazz in Paris (Gitanes) YEAR: 1956
EXTT0=
EXTT1=
EXTT2=
EXTT3=
EXTT4=
EXTT5=
EXTT6=
EXTT7=
PLAYORDER=
